<?xml version="1.0" encoding="utf-8"?>
<!-- Generator: Adobe Illustrator 26.0.0, SVG Export Plug-In . SVG Version: 6.00 Build 0)  -->
<svg version="1.1" id="Layer_1" xmlns="http://www.w3.org/2000/svg" xmlns:xlink="http://www.w3.org/1999/xlink" x="0px" y="0px"
	 viewBox="0 0 108 17" style="enable-background:new 0 0 108 17;" xml:space="preserve">
<style type="text/css">
	.st0{fill:#9D1C42;}
</style>
<path class="st0" d="M83.3,16l0.2,0.2l0.2-0.2L95.2,2.9l11.2,12.7l0.2,0.2l0.2-0.2l0.7-0.7l0.2-0.2l-0.2-0.2L95.4,0.8l-0.2-0.2
	L95,0.8L83.5,13.9L71.9,0.8l-0.2-0.2l-0.2,0.2L60,13.9L48.5,0.8l-0.2-0.2l-0.2,0.2L36.6,13.9L25,0.8l-0.2-0.2l-0.2,0.2L13.1,13.9
	L2,1.2L1.8,1L1.6,1.2L0.8,1.9L0.6,2.1l0.2,0.2L12.9,16l0.2,0.2l0.2-0.2L24.8,2.9L36.4,16l0.2,0.2l0.2-0.2L48.3,2.9L59.8,16l0.2,0.2
	l0.2-0.2L71.7,2.9L83.3,16z"/>
</svg>
